<svg width="56" height="56" viewBox="0 0 56 56" fill="none" xmlns="http://www.w3.org/2000/svg">
<path d="M28.6832 8.4336C28.4739 8.43322 28.2671 8.47982 28.0781 8.56995C27.8891 8.66008 27.7227 8.79145 27.5912 8.9544L27.342 9.1392C22.512 7.644 17.0016 8.7416 13.1656 12.4376C11.5588 13.9616 10.3635 15.8671 9.69086 17.9771C9.01822 20.087 8.89011 22.3328 9.31843 24.5056L9.17843 24.6344L6.99723 26.7344C6.5753 27.1347 6.23928 27.6166 6.00966 28.151C5.78004 28.6853 5.66162 29.2608 5.66162 29.8424C5.66162 30.424 5.78004 30.9995 6.00966 31.5338C6.23928 32.0681 6.5753 32.5501 6.99723 32.9504C8.11163 34.0256 9.65723 34.4288 11.0936 34.16C11.27 34.9692 11.6816 35.7392 12.334 36.3664C13.1936 37.1952 14.3108 37.6236 15.4364 37.6544C15.4672 38.738 15.9124 39.8132 16.772 40.642C17.6316 41.4708 18.7516 41.902 19.8772 41.93C19.9052 43.0136 20.3532 44.0916 21.2128 44.9204C22.0358 45.7014 23.1138 46.1578 24.2473 46.2052C25.3809 46.2525 26.4932 45.8876 27.3784 45.178L28.602 46.354C30.394 48.0816 33.3004 48.0816 35.0924 46.354C35.9492 45.5308 36.3944 44.4612 36.4336 43.3804C37.5536 43.3468 38.6596 42.9184 39.5136 42.0952C40.3676 41.272 40.8156 40.1996 40.8492 39.1188C41.9869 39.0776 43.0699 38.6203 43.8928 37.8336C44.5732 37.1812 44.9932 36.372 45.1556 35.5264C45.8764 35.6525 46.6166 35.6078 47.3169 35.3958C48.0172 35.1838 48.6579 34.8103 49.1876 34.3056C49.61 33.9053 49.9464 33.4231 50.1763 32.8885C50.4062 32.354 50.5247 31.7781 50.5247 31.1962C50.5247 30.6143 50.4062 30.0384 50.1763 29.5038C49.9464 28.9692 49.61 28.4871 49.1876 28.0868L47.1716 26.1464L47.5832 24.6064C48.4129 21.4578 47.9914 18.1103 46.4072 15.2656C44.0664 11.0488 39.5248 8.4448 34.6136 8.4448H31.1696L30.7244 8.4336H28.6832ZM35.5516 18.8384L42.2856 25.326L42.294 25.3316L47.1688 30.03C47.3272 30.1802 47.4533 30.361 47.5395 30.5615C47.6257 30.762 47.6701 30.978 47.6701 31.1962C47.6701 31.4144 47.6257 31.6304 47.5395 31.8309C47.4533 32.0314 47.3272 32.2122 47.1688 32.3624C46.8414 32.6715 46.4081 32.8438 45.9578 32.8438C45.5075 32.8438 45.0743 32.6715 44.7468 32.3624L41.048 28.8008C40.7769 28.5407 40.4157 28.3954 40.04 28.3954C39.6643 28.3954 39.3032 28.5407 39.032 28.8008L38.9928 28.8344C38.8615 28.9599 38.757 29.1107 38.6857 29.2777C38.6143 29.4447 38.5775 29.6244 38.5775 29.806C38.5775 29.9876 38.6143 30.1673 38.6857 30.3343C38.757 30.5013 38.8615 30.6521 38.9928 30.7776L41.8768 33.5552C42.5488 34.1992 42.5488 35.2464 41.8768 35.8932C41.5794 36.175 41.1932 36.3445 40.7845 36.3726C40.3758 36.4007 39.97 36.2856 39.6368 36.0472C39.3588 35.8463 39.0191 35.7492 38.6769 35.7727C38.3347 35.7962 38.0116 35.9389 37.7636 36.176C37.5213 36.4077 37.375 36.722 37.3538 37.0566C37.3325 37.3912 37.4378 37.7215 37.6488 37.982C37.9002 38.2968 38.0241 38.6946 37.9961 39.0965C37.9681 39.4983 37.7902 39.8751 37.4976 40.152C37.196 40.438 36.8031 40.6084 36.3882 40.6329C35.9732 40.6575 35.5629 40.5348 35.2296 40.2864C34.953 40.0789 34.6119 39.9757 34.2666 39.9952C33.9213 40.0147 33.594 40.1555 33.3424 40.3928C33.097 40.6241 32.9481 40.9398 32.9258 41.2763C32.9034 41.6129 33.0093 41.9455 33.222 42.2072C33.4805 42.5257 33.6089 42.9303 33.5814 43.3396C33.5539 43.7488 33.3725 44.1326 33.0736 44.4136C32.7422 44.7281 32.3027 44.9035 31.8458 44.9035C31.3889 44.9035 30.9495 44.7281 30.618 44.4136L29.4056 43.246L29.848 42.8204C30.2704 42.4201 30.6068 41.9379 30.8367 41.4033C31.0666 40.8687 31.1851 40.2929 31.1851 39.711C31.1851 39.1291 31.0666 38.5532 30.8367 38.0186C30.6068 37.4841 30.2704 37.0019 29.848 36.6016C29.0106 35.8005 27.9042 35.3412 26.7456 35.3136C26.711 34.1799 26.2312 33.1056 25.41 32.3232C24.5715 31.5225 23.464 31.0641 22.3048 31.038C22.2702 29.9043 21.7904 28.83 20.9692 28.0476C20.4313 27.5356 19.7792 27.1591 19.0668 26.9492C18.3545 26.7394 17.6024 26.7022 16.8728 26.8408C16.6878 25.9984 16.2559 25.2303 15.6324 24.6344C15.1546 24.1774 14.5847 23.8276 13.9608 23.6084C13.337 23.3892 12.6736 23.3056 12.0148 23.3632C11.7947 21.7225 11.9667 20.0529 12.5167 18.4915C13.0667 16.9301 13.979 15.5214 15.1788 14.3808C16.3915 13.222 17.8456 12.3458 19.4368 11.8153C21.028 11.2847 22.717 11.1128 24.3824 11.312L20.3084 14.308C19.7872 14.6868 19.3481 15.1672 19.0177 15.7204C18.6873 16.2736 18.4724 16.888 18.386 17.5265C18.2997 18.165 18.3436 18.8144 18.5152 19.4355C18.6868 20.0565 18.9825 20.6364 19.3844 21.14C20.1977 22.1586 21.3721 22.8247 22.6637 22.9999C23.9554 23.1751 25.2648 22.846 26.32 22.0808L30.7328 18.8412L35.5516 18.8384ZM21.966 16.562L29.2236 11.2336H30.7244C30.8617 11.2323 30.999 11.236 31.136 11.2448H34.6136C38.5448 11.2448 42.1316 13.3308 43.96 16.6264C45.1976 18.8552 45.5224 21.4452 44.8756 23.8896L44.8672 23.9176L37.1392 16.45C36.8773 16.1873 36.5218 16.0392 36.1508 16.0384H30.2708C29.9737 16.039 29.6844 16.1341 29.4448 16.31L24.6624 19.8212C24.1924 20.1569 23.6121 20.3007 23.0397 20.2231C22.4674 20.1456 21.9462 19.8526 21.5824 19.404C21.4131 19.1954 21.2883 18.9544 21.2156 18.6957C21.143 18.4371 21.124 18.1663 21.1599 17.9001C21.1959 17.6338 21.2859 17.3778 21.4246 17.1477C21.5632 16.9175 21.7475 16.7182 21.966 16.562ZM23.2036 40.67L23.2316 40.642L25.41 38.542L25.4352 38.5196C25.7645 38.2211 26.1942 38.0579 26.6386 38.0626C27.0829 38.0673 27.5092 38.2395 27.832 38.5448C27.9904 38.695 28.1165 38.8758 28.2027 39.0763C28.2889 39.2768 28.3333 39.4928 28.3333 39.711C28.3333 39.9292 28.2889 40.1452 28.2027 40.3457C28.1165 40.5462 27.9904 40.727 27.832 40.8772L25.6508 42.9772C25.3234 43.2863 24.8901 43.4586 24.4398 43.4586C23.9895 43.4586 23.5563 43.2863 23.2288 42.9772C23.0726 42.8293 22.9476 42.6514 22.8613 42.4543C22.7751 42.2572 22.7293 42.0447 22.7266 41.8295C22.724 41.6143 22.7647 41.4008 22.8461 41.2017C22.9276 41.0025 23.051 40.8217 23.2036 40.67ZM23.4164 36.5764L23.3884 36.6016L21.21 38.7016L21.182 38.7268C20.8526 39.0241 20.4233 39.1863 19.9796 39.1811C19.5359 39.1759 19.1104 39.0037 18.788 38.6988C18.6315 38.5502 18.5064 38.3716 18.4203 38.1736C18.3343 37.9757 18.289 37.7624 18.2872 37.5466C18.2853 37.3307 18.327 37.1167 18.4097 36.9173C18.4924 36.7179 18.6144 36.5372 18.7684 36.386L18.788 36.3664L20.9664 34.2664L20.986 34.2468C21.3149 33.946 21.7454 33.7808 22.1911 33.7844C22.6368 33.788 23.0645 33.9602 23.3884 34.2664C23.5451 34.4144 23.6705 34.5924 23.757 34.7898C23.8435 34.9872 23.8895 35.1999 23.8921 35.4155C23.8947 35.631 23.8539 35.8448 23.7722 36.0443C23.6905 36.2437 23.5695 36.4247 23.4164 36.5764ZM18.9504 32.3232L16.7692 34.4232L16.7496 34.4428C16.4208 34.7436 15.9903 34.9088 15.5446 34.9052C15.0989 34.9016 14.6711 34.7294 14.3472 34.4232C14.1889 34.273 14.0628 34.0922 13.9766 33.8917C13.8904 33.6912 13.846 33.4752 13.846 33.257C13.846 33.0388 13.8904 32.8228 13.9766 32.6223C14.0628 32.4218 14.1889 32.241 14.3472 32.0908L16.5256 29.9908C16.8532 29.6808 17.2871 29.5081 17.738 29.5081C18.189 29.5081 18.6229 29.6808 18.9504 29.9908C19.1074 30.1394 19.2329 30.3182 19.3192 30.5164C19.4055 30.7146 19.4509 30.9282 19.4527 31.1444C19.4546 31.3606 19.4128 31.575 19.3298 31.7746C19.2469 31.9743 19.1245 32.1551 18.97 32.3064L18.9504 32.3232ZM13.6136 28.91L11.4352 31.01C11.1077 31.32 10.6738 31.4927 10.2228 31.4927C9.77186 31.4927 9.33801 31.32 9.01043 31.01C8.85164 30.8598 8.72515 30.6788 8.63871 30.478C8.55227 30.2773 8.50768 30.061 8.50768 29.8424C8.50768 29.6238 8.55227 29.4075 8.63871 29.2068C8.72515 29.006 8.85164 28.825 9.01043 28.6748L11.1916 26.5748C11.5191 26.2657 11.9523 26.0934 12.4026 26.0934C12.8529 26.0934 13.2862 26.2657 13.6136 26.5748C13.7724 26.725 13.8989 26.906 13.9854 27.1068C14.0718 27.3075 14.1164 27.5238 14.1164 27.7424C14.1164 27.961 14.0718 28.1773 13.9854 28.378C13.8989 28.5788 13.7724 28.7598 13.6136 28.91Z" fill="#52110C"/>
</svg>
