<svg width="56" height="56" viewBox="0 0 56 56" fill="none" xmlns="http://www.w3.org/2000/svg">
<path d="M14.0116 31.1921C14.0793 30.5014 14.6183 29.7921 15.5003 29.5541C16.3846 29.3161 17.2036 29.6637 17.6073 30.2307C17.8774 30.6082 18.2864 30.8629 18.7444 30.9389C19.2023 31.0148 19.6716 30.9057 20.0491 30.6356C20.4266 30.3654 20.6814 29.9564 20.7573 29.4985C20.8332 29.0406 20.7241 28.5712 20.454 28.1937C19.1706 26.3971 16.8326 25.5734 14.595 26.1731C12.3573 26.7727 10.7426 28.6557 10.528 30.8537C10.5058 31.0825 10.5288 31.3133 10.5958 31.5332C10.6628 31.753 10.7725 31.9575 10.9185 32.1349C11.0646 32.3124 11.2441 32.4593 11.4469 32.5674C11.6498 32.6755 11.8719 32.7425 12.1006 32.7647C12.3294 32.7869 12.5603 32.7639 12.7801 32.6969C12.9999 32.6299 13.2044 32.5202 13.3818 32.3742C13.5593 32.2281 13.7063 32.0486 13.8143 31.8457C13.9224 31.6429 13.9894 31.4208 14.0116 31.1921ZM27.5356 27.5684C27.6033 26.8777 28.1423 26.1684 29.0243 25.9304C29.9086 25.6924 30.7276 26.0401 31.1313 26.6047C31.4057 26.9703 31.8122 27.214 32.2639 27.2838C32.7156 27.3535 33.1767 27.2438 33.5486 26.978C33.9205 26.7122 34.1736 26.3115 34.2538 25.8615C34.334 25.4115 34.235 24.948 33.978 24.5701C32.6946 22.7734 30.3566 21.9497 28.119 22.5494C25.8813 23.1491 24.2666 25.0297 24.052 27.2301C24.0071 27.692 24.1476 28.1529 24.4425 28.5113C24.7375 28.8696 25.1627 29.0962 25.6246 29.1411C26.0866 29.1859 26.5475 29.0454 26.9058 28.7505C27.2642 28.4556 27.4908 28.0304 27.5356 27.5684ZM31.8453 36.4677C32.2145 36.7436 32.46 37.154 32.5284 37.6098C32.5968 38.0656 32.4827 38.53 32.2107 38.9021C31.9388 39.2743 31.531 39.5241 31.0759 39.5973C30.6209 39.6706 30.1553 39.5614 29.7803 39.2934L29.757 39.2794C29.4019 39.0748 29.0214 38.9179 28.6253 38.8127C27.783 38.5841 26.4553 38.4324 24.6913 38.9061C22.9273 39.3774 21.8563 40.1731 21.238 40.7914C20.9475 41.0807 20.6965 41.4071 20.4913 41.7621L20.4796 41.7854C20.3866 41.9956 20.2531 42.1854 20.0868 42.344C19.9204 42.5026 19.7245 42.6269 19.5101 42.7098C19.2957 42.7927 19.067 42.8325 18.8373 42.827C18.6075 42.8216 18.381 42.7709 18.1708 42.6779C17.9606 42.5849 17.7708 42.4514 17.6122 42.285C17.4535 42.1187 17.3293 41.9227 17.2464 41.7083C17.1635 41.4939 17.1237 41.2653 17.1291 41.0355C17.1346 40.8057 17.1853 40.5793 17.2783 40.3691L17.2806 40.3667V40.3621L17.2876 40.3527L17.2946 40.3341L17.3203 40.2804L17.395 40.1311C17.4572 40.0097 17.5466 39.8573 17.6633 39.6737C17.8966 39.3097 18.2513 38.8337 18.7576 38.3251C19.775 37.3007 21.3803 36.1691 23.786 35.5251C26.1916 34.8787 28.1493 35.0584 29.5423 35.4364C30.2353 35.6231 30.779 35.8564 31.164 36.0571C31.3696 36.1645 31.5697 36.2821 31.7636 36.4094L31.8103 36.4444L31.8313 36.4561L31.8383 36.4631L31.8453 36.4677Z" fill="#52110C"/>
<path fill-rule="evenodd" clip-rule="evenodd" d="M30.9236 5.24997L31.017 5.29664C33.7423 6.57297 34.9673 7.14231 36.2343 7.54364C36.6854 7.68675 37.1389 7.81431 37.5946 7.92631C38.8826 8.23897 40.2127 8.38597 43.183 8.70564L43.288 8.71497C45.1733 8.91797 46.7413 9.08831 47.978 9.36831C49.2706 9.66464 50.4373 10.1336 51.3567 11.102C51.8933 11.662 52.3227 12.3176 52.6306 13.0316C53.1557 14.245 53.158 15.5143 52.9667 16.8583C52.78 18.151 52.3763 19.733 51.884 21.6556L49.8867 29.4466C48.216 35.9636 43.9763 39.585 39.7203 41.5543C38.0286 45.227 35.3733 48.041 33.1776 49.9146L33.1286 49.9566C32.5453 50.456 31.969 50.9483 31.2153 51.38C30.4336 51.8256 29.526 52.1733 28.2543 52.5303C26.9826 52.8873 26.0306 53.06 25.1323 53.081C24.269 53.102 23.5293 52.976 22.785 52.8476L22.7196 52.8383C17.304 51.919 8.69165 48.839 6.11331 38.78L4.11598 30.9866C3.62598 29.0663 3.21998 27.4866 3.03331 26.1893C2.84198 24.8476 2.84431 23.5806 3.36931 22.365C3.67731 21.651 4.10898 20.9976 4.64331 20.4353C5.56265 19.467 6.72931 18.998 8.02198 18.704C9.25865 18.4193 10.8243 18.2513 12.712 18.0506L12.817 18.039C14.0303 17.9083 14.966 17.8056 15.7406 17.7123L17.199 12.019C17.6913 10.0963 18.0973 8.51664 18.557 7.29631C19.0306 6.03631 19.6443 4.92331 20.7036 4.12764C21.322 3.66097 22.022 3.31564 22.7663 3.10331C24.0496 2.73931 25.2956 2.94931 26.551 3.36697C27.755 3.76831 29.1923 4.43797 30.9236 5.24997ZM46.4963 28.5786C45.535 32.3306 43.5563 34.881 41.216 36.6286C41.5833 34.1316 41.4404 31.5859 40.796 29.1456L38.626 20.671C38.9429 20.5474 39.217 20.3342 39.4146 20.0573C39.8183 19.4926 40.6396 19.1473 41.524 19.383C42.406 19.6186 42.9426 20.3303 43.0103 21.021C43.0552 21.4829 43.2817 21.9082 43.6401 22.2031C43.9985 22.498 44.4594 22.6385 44.9213 22.5936C45.3833 22.5488 45.8085 22.3222 46.1034 21.9638C46.3984 21.6055 46.5388 21.1446 46.494 20.6826C46.2817 18.4846 44.667 16.6016 42.4293 16.002C41.5992 15.7741 40.7273 15.7432 39.8831 15.9117C39.0389 16.0802 38.2457 16.4435 37.5666 16.9726L37.443 16.632C36.9693 15.372 36.3556 14.259 35.2963 13.4633C34.6775 12.998 33.9783 12.6508 33.2336 12.439C32.0203 12.096 30.8396 12.264 29.6566 12.6373C29.4113 12.5368 29.1605 12.4503 28.9053 12.3783C26.6653 11.7786 24.3273 12.6023 23.044 14.399C22.7796 14.7683 22.6691 15.226 22.736 15.6753C21.4526 16.2633 20.6173 16.6086 19.7656 16.8793L19.551 16.9493L20.5636 12.9896C21.0886 10.9433 21.4503 9.55031 21.8306 8.53297C22.2063 7.53431 22.5213 7.14231 22.8036 6.92997C23.0836 6.71997 23.3963 6.56597 23.7206 6.47264C24.031 6.38397 24.4883 6.37231 25.4473 6.69197C26.432 7.01864 27.6826 7.60197 29.5353 8.46997L29.659 8.52831C32.2256 9.72997 33.6653 10.4043 35.175 10.885C35.7008 11.0499 36.2312 11.1976 36.7663 11.3283C38.3063 11.7016 39.8743 11.872 42.672 12.173L42.8097 12.187C44.828 12.404 46.1883 12.5533 47.1963 12.7843C48.1716 13.006 48.5753 13.258 48.8203 13.5146C49.0692 13.776 49.2683 14.0793 49.4177 14.4246C49.574 14.784 49.6533 15.3043 49.5017 16.3613C49.3476 17.4463 48.9907 18.8416 48.468 20.8856L46.4963 28.5786ZM30.555 16.0253C29.568 16.352 28.3173 16.9353 26.4646 17.8033L26.341 17.8616C23.7743 19.0633 22.3346 19.7376 20.825 20.2183C20.2992 20.3832 19.7688 20.531 19.2336 20.6616C17.6936 21.035 16.1256 21.2053 13.328 21.5063L13.1903 21.5203C11.172 21.7373 9.81165 21.8866 8.80365 22.1176C7.82831 22.3393 7.42464 22.5913 7.17965 22.848C6.92729 23.1128 6.72492 23.4211 6.58231 23.758C6.42598 24.1173 6.34665 24.6376 6.49831 25.6946C6.65231 26.7796 7.00931 28.175 7.53198 30.219L9.50364 37.912C11.5616 45.9386 18.3656 48.552 23.3076 49.392C24.1196 49.5296 24.549 49.5973 25.0483 49.5833C25.5383 49.5716 26.1823 49.4783 27.3116 49.1633C28.4386 48.846 29.043 48.5916 29.4793 48.342C29.9226 48.0876 30.268 47.8006 30.905 47.257C34.8016 43.932 39.473 38.073 37.408 30.0136L35.4363 22.323C34.9113 20.2766 34.5496 18.8836 34.1693 17.8663C33.7936 16.8676 33.4786 16.4756 33.1963 16.2633C32.9214 16.0557 32.6105 15.9007 32.2793 15.806C31.969 15.7173 31.5116 15.7056 30.5526 16.0253" fill="#52110C"/>
</svg>
