<svg width="56" height="56" viewBox="0 0 56 56" fill="none" xmlns="http://www.w3.org/2000/svg">
<path d="M7.76538 22.428H49.5834V45.234C49.5834 46.3674 49.1331 47.4544 48.3317 48.2558C47.5303 49.0572 46.4433 49.5075 45.3099 49.5075H12.0389C10.9055 49.5075 9.8185 49.0572 9.01706 48.2558C8.21562 47.4544 7.76538 46.3674 7.76538 45.234V22.428Z" stroke="#52110C" stroke-width="2" stroke-linecap="round" stroke-linejoin="round"/>
<path d="M35.035 35.4853L25.9828 29.806C25.8966 29.7517 25.7974 29.7215 25.6956 29.7187C25.5937 29.7158 25.493 29.7403 25.4038 29.7897C25.3147 29.839 25.2404 29.9114 25.1887 29.9992C25.1371 30.087 25.11 30.1871 25.1102 30.289V41.6477C25.11 41.7495 25.1371 41.8496 25.1887 41.9374C25.2404 42.0253 25.3147 42.0976 25.4038 42.147C25.493 42.1963 25.5937 42.2208 25.6956 42.218C25.7974 42.2151 25.8966 42.1849 25.9828 42.1306L35.035 36.4513C35.1165 36.3998 35.1835 36.3284 35.23 36.244C35.2765 36.1595 35.3009 36.0647 35.3009 35.9683C35.3009 35.8719 35.2765 35.7771 35.23 35.6926C35.1835 35.6082 35.1165 35.5369 35.035 35.4853ZM43.7745 6.90898L42.5425 11.8871L36.4467 13.0083L37.6787 8.03015L31.3238 9.19915L30.0907 14.1785L23.9948 15.2996L25.228 10.3215L18.872 11.4905L17.64 16.4686L11.5442 17.591L12.7762 12.6128L7.58334 13.5683C7.39926 13.602 7.22362 13.6717 7.06649 13.7733C6.90936 13.875 6.77382 14.0066 6.66762 14.1607C6.56142 14.3148 6.48666 14.4883 6.4476 14.6713C6.40855 14.8544 6.40596 15.0433 6.44001 15.2273L7.76534 22.4291L48.8927 14.861L47.5673 7.65915C47.5336 7.47506 47.464 7.29943 47.3623 7.1423C47.2607 6.98517 47.1291 6.84962 46.975 6.74343C46.8209 6.63723 46.6473 6.56246 46.4643 6.52341C46.2813 6.48435 46.0924 6.48177 45.9083 6.51581L43.7745 6.90898Z" stroke="#52110C" stroke-width="2" stroke-linecap="round" stroke-linejoin="round"/>
</svg>
